<svg xmlns="http://www.w3.org/2000/svg" width="1024" height="1024" viewBox="0 0 1024 1024" version="1.1"><path d="M 165.402 338.311 C 144.512 352.677, 134.617 359.864, 134.208 360.967 C 134.047 361.400, 136.747 362.499, 140.208 363.408 C 147.941 365.439, 195.579 377.702, 218 383.433 L 234.500 387.651 235.019 455.075 C 235.587 528.935, 235.336 525.825, 241.752 538.494 C 247.121 549.096, 261.699 560.519, 274.750 564.351 L 280 565.892 280 482.427 L 280 398.962 282.750 399.619 C 291.078 401.609, 346.929 416.177, 385.339 426.377 C 396.248 429.275, 398.106 429.540, 397.701 428.144 C 396.265 423.190, 376.684 375.313, 375.685 374.312 C 374.497 373.121, 188.682 326, 185.173 326 C 184.145 326, 175.249 331.540, 165.402 338.311 M 208.205 607.315 L 193 615.494 193 638.747 C 193 653.776, 193.358 662, 194.013 662 C 194.570 662, 201.882 659.968, 210.263 657.485 C 226.140 652.781, 232.121 650.133, 243.628 642.711 C 251.856 637.405, 266.009 623.251, 265.996 620.342 C 265.994 619.879, 262.732 618.693, 258.746 617.706 C 249.827 615.499, 236.913 609.363, 230.388 604.234 C 227.700 602.120, 225.030 600.109, 224.455 599.763 C 223.881 599.418, 216.568 602.816, 208.205 607.315" stroke="none" fill="#c92141" fill-rule="evenodd"/><path d="M 217.905 440.697 C 204.879 454.343, 197.445 467.189, 192.844 484.001 C 190.808 491.442, 190.519 494.742, 190.528 510.500 C 190.540 531.631, 192.027 538.697, 200.044 555.731 C 209.908 576.689, 225.177 592.508, 245.374 602.693 C 253.298 606.689, 268.250 612.014, 271.438 611.975 C 273.140 611.954, 274.717 609.142, 280.465 595.881 C 284.295 587.043, 288.316 579.191, 289.401 578.432 C 291.265 577.126, 291.213 577.055, 288.436 577.116 C 278.139 577.342, 264.403 572.537, 251.274 564.115 C 243.029 558.826, 236.629 551.820, 234.039 545.250 C 233.334 543.462, 232.287 542, 231.712 542 C 231.137 542, 230.928 541.738, 231.248 541.418 C 231.568 541.099, 231.204 539.340, 230.440 537.510 C 227.112 529.546, 226.736 524.435, 226.796 488 C 226.829 467.925, 226.551 447.279, 226.178 442.120 L 225.500 432.740 217.905 440.697 M 619.500 586.227 C 607.190 590.615, 598.793 604.159, 600.331 617.146 C 601.514 627.133, 609.512 637.152, 618.963 640.487 C 624.507 642.443, 636.014 642.439, 640.705 640.479 C 645.115 638.636, 653.015 632.323, 652.962 630.683 C 652.924 629.488, 645.680 624, 644.142 624 C 643.684 624, 642.453 624.962, 641.405 626.138 C 634.444 633.950, 619.607 631.932, 614.712 622.508 C 612.150 617.575, 611.967 609.745, 614.311 605.302 C 616.898 600.397, 622.324 596.771, 627.877 596.238 C 633.144 595.732, 637.573 597.427, 642.143 601.699 L 644.787 604.170 648.893 601.452 C 651.152 599.957, 653 598.204, 653 597.557 C 653 595.424, 646.590 589.739, 641.500 587.358 C 635.990 584.781, 625.125 584.222, 619.500 586.227 M 761.459 586.880 C 753.459 590.514, 749.572 598.289, 751.889 606.023 C 753.429 611.164, 757.283 614.169, 767.184 617.950 C 779.013 622.467, 781.139 624.861, 777 629 C 775.587 630.413, 773.667 631, 770.460 631 C 766.124 631, 758.863 628.205, 757.509 626.014 C 756.411 624.238, 754.581 625.047, 751.605 628.625 L 748.710 632.106 752.012 635.512 C 756.195 639.828, 762.541 642, 770.966 642 C 783.290 642, 791.004 635.685, 790.996 625.602 C 790.989 616.288, 786.790 612.105, 772.739 607.418 C 765.108 604.872, 762.801 602.968, 763.750 600 C 765.203 595.458, 772.222 594.722, 778.708 598.430 L 782.915 600.836 786.520 596.846 C 790.800 592.109, 790.331 591.002, 782.500 587.351 C 776.229 584.427, 767.299 584.227, 761.459 586.880 M 884.994 585.934 C 872.958 589.596, 865.054 600.509, 865.032 613.500 C 865.011 625.526, 870.937 634.793, 881.841 639.785 C 886.551 641.941, 888.233 642.183, 895.847 641.797 C 908.868 641.137, 917.155 635.681, 922.123 624.500 C 928.488 610.172, 920.297 591.696, 905.316 586.592 C 900.495 584.949, 889.411 584.591, 884.994 585.934 M 496 591.481 L 496 597 504.500 597 L 513 597 513 619.550 L 513 642.100 518.750 641.800 L 524.500 641.500 524.769 619.250 L 525.038 597 532.921 597 L 540.805 597 540.652 591.750 L 540.500 586.500 518.250 586.231 L 496 585.962 496 591.481 M 550 614 L 550 642 569.441 642 C 580.134 642, 589.120 641.615, 589.411 641.144 C 589.702 640.673, 589.663 637.950, 589.324 635.092 L 588.709 629.895 575.353 630.198 L 561.997 630.500 561.998 624.250 L 562 618 573 618 L 584 618 584 612.500 L 584 607 573 607 L 562 607 562 602 L 562 597 575.500 597 L 589 597 589 591.500 L 589 586 569.500 586 L 550 586 550 614 M 663.667 586.667 C 663.300 587.033, 663 599.633, 663 614.667 L 663 642 669 642 L 675 642 675 630 L 675 618 687 618 L 699 618 699 630 L 699 642 705 642 L 711 642 711 614 L 711 586 705 586 L 699 586 699 596.500 L 699 607 687 607 L 675 607 675 596.500 L 675 586 669.667 586 C 666.733 586, 664.033 586.300, 663.667 586.667 M 805 613.950 L 805 642 811 642 L 817 642 817 629.968 L 817 617.937 828.750 618.218 L 840.500 618.500 840.782 630.250 L 841.063 642 847.048 642 L 853.032 642 852.766 614.250 L 852.500 586.500 846.750 586.200 L 841 585.900 841 596.450 L 841 607 829.035 607 L 817.070 607 816.785 596.750 L 816.500 586.500 810.750 586.200 L 805 585.900 805 613.950 M 937 613.862 L 937 642 943 642 L 949 642 949 632.500 L 949 623 953.951 623 C 966.124 623, 974.055 619.345, 977.750 612.030 C 982.256 603.110, 979.241 593.354, 970.662 589.101 C 966.428 587.003, 964.022 586.642, 951.412 586.214 L 937 585.724 937 613.862 M 885.830 598.027 C 879.680 601.276, 877.500 605.345, 877.500 613.578 C 877.500 619.790, 877.843 621.105, 880.302 624.329 C 884.392 629.691, 888.119 631.289, 895.449 630.822 C 899.793 630.546, 902.529 629.760, 904.815 628.132 C 915.016 620.868, 914 603.778, 903.038 598.250 C 897.527 595.471, 890.833 595.384, 885.830 598.027 M 949 604.613 L 949 612.226 955.927 611.834 C 964.141 611.370, 967 609.455, 967 604.418 C 967 599.357, 963.304 597, 955.365 597 L 949 597 949 604.613" stroke="none" fill="#69c2d0" fill-rule="evenodd"/><path d="M 446 499.986 L 446 641.723 448.500 641.245 L 451 640.767 451 499.508 L 451 358.250 448.500 358.250 L 446 358.250 446 499.986 M 101 385.988 C 85.875 391.984, 64.621 400.402, 53.769 404.695 L 34.039 412.500 34.019 486.654 L 34 560.807 53.245 574.311 C 63.830 581.738, 72.735 587.664, 73.034 587.479 C 73.333 587.294, 73.490 553.651, 73.383 512.717 L 73.187 438.292 91.344 431.548 C 101.330 427.840, 115.270 422.551, 122.323 419.795 L 135.146 414.785 142.573 417.494 L 150 420.203 150 438 L 150 455.798 118.927 476.149 C 101.838 487.342, 86.894 497.232, 85.719 498.128 C 83.616 499.731, 83.837 500.012, 100.194 516.628 C 109.330 525.907, 121.799 538.658, 127.903 544.963 L 139 556.427 139.016 592.463 L 139.031 628.500 154.182 638 C 162.514 643.225, 171.959 649.413, 175.169 651.750 C 178.379 654.087, 181.467 656, 182.030 656 C 182.718 656, 183.025 638.102, 182.966 601.521 L 182.877 547.042 179.315 542.771 C 176.239 539.083, 166.418 528.494, 148.545 509.596 C 145.995 506.899, 144.266 504.368, 144.704 503.971 C 145.142 503.575, 151.800 498.786, 159.500 493.331 C 167.200 487.875, 176.763 480.968, 180.750 477.981 L 188 472.552 187.984 436.526 L 187.968 400.500 174.925 391.757 L 161.882 383.014 146.148 379.007 C 137.494 376.803, 129.983 375.020, 129.457 375.044 C 128.931 375.068, 116.125 379.993, 101 385.988 M 874.500 380.422 C 835.430 388.039, 807.859 417.883, 802.370 458.500 C 798.382 488.015, 806.704 515.841, 825.496 535.814 C 842.658 554.056, 862.170 562.479, 890.070 563.693 C 912.230 564.656, 928.386 561.485, 945.122 552.888 C 955.767 547.420, 966.317 538.546, 973.119 529.339 L 977 524.085 977 493.543 L 977 463 936.500 463 L 896 463 896 479 L 896 495 918.098 495 L 940.196 495 939.647 504.750 C 939.111 514.253, 939.014 514.573, 935.799 517.361 C 930.150 522.259, 919.283 526.811, 909 528.586 C 867.865 535.684, 837.035 509.383, 839.255 469.086 C 840.197 452.006, 845.932 438.894, 856.889 428.778 C 867.790 418.712, 877.923 415, 894.500 415 C 911.732 415, 923.790 419.790, 935.148 431.148 C 938.717 434.717, 941.555 436.798, 942.286 436.382 C 943.327 435.790, 963.558 420.614, 967.606 417.390 C 968.373 416.779, 969 415.804, 969 415.223 C 969 413.101, 953.648 397.920, 947.166 393.632 C 939.900 388.826, 929.070 383.929, 920.169 381.425 C 912.278 379.205, 883.935 378.583, 874.500 380.422 M 496 471.500 L 496 560 515 560 L 534 560 534 529 L 534 498 545.344 498 L 556.688 498 577.140 528.750 L 597.592 559.500 619.878 559.769 L 642.164 560.039 639.880 556.769 C 638.624 554.971, 628.015 540.310, 616.304 524.189 L 595.013 494.878 603.256 490.767 C 626.788 479.034, 638.525 453.822, 632.451 428.053 C 626.931 404.634, 609.147 389.175, 582.352 384.502 C 575.685 383.339, 564.954 383, 534.869 383 L 496 383 496 471.500 M 730 446.318 C 730 516.548, 729.995 516.609, 723.659 523.134 C 719.601 527.312, 713.857 529.188, 705.325 529.123 C 695.193 529.045, 684.749 523.049, 680.435 514.834 L 679.035 512.167 663.048 520.834 C 654.256 525.600, 647.048 529.973, 647.031 530.551 C 646.977 532.402, 658.826 545.623, 664.381 549.908 C 678.219 560.584, 696.118 565.300, 714.226 563.039 C 726.540 561.502, 734.606 558.745, 743.123 553.164 C 754.697 545.579, 762.101 535.029, 766.280 520.169 C 768.370 512.737, 768.446 510.500, 768.765 447.750 L 769.095 383 749.547 383 L 730 383 730 446.318 M 292.109 433.997 C 291.972 445.861, 292.276 452.627, 292.982 453.478 C 293.577 454.195, 299.738 456.268, 306.674 458.085 C 314.899 460.240, 319.961 462.104, 321.230 463.444 C 322.300 464.575, 326.132 468.988, 329.744 473.250 C 334.130 478.425, 337.019 481, 338.438 481 C 340.442 481, 375.770 469.563, 376.730 468.603 C 376.977 468.357, 371.626 461.931, 364.839 454.324 C 358.053 446.717, 350.250 437.942, 347.500 434.824 L 342.500 429.155 320 422.945 C 307.625 419.529, 296.334 416.529, 294.909 416.277 L 292.318 415.820 292.109 433.997 M 534 441 C 534 454.750, 534.112 466.337, 534.250 466.750 C 534.388 467.163, 543.050 467.489, 553.500 467.476 C 574.450 467.449, 579.210 466.528, 586.795 461.033 C 598.370 452.648, 598.415 432.041, 586.878 422.903 C 579.818 417.312, 573.269 416, 552.411 416 L 534 416 534 441 M 292 518.433 C 292 535.113, 292.166 536.917, 293.750 537.410 C 295.209 537.864, 305.046 539.638, 338.750 545.523 C 340.538 545.835, 342 546.469, 342 546.931 C 342 548.883, 333.518 560.255, 329.279 563.986 C 321.061 571.220, 305.992 576.928, 294.973 576.983 C 293.032 576.992, 290.541 577.633, 289.437 578.406 C 288.333 579.180, 284.295 587.043, 280.465 595.881 C 276.079 605.999, 272.945 611.990, 272 612.058 C 271.175 612.118, 273.091 612.794, 276.257 613.562 C 279.424 614.329, 284.786 615.867, 288.172 616.978 C 293.545 618.742, 296.955 619, 314.915 619 L 335.500 619 344 614.250 C 358.323 606.246, 371.741 591.342, 380.825 573.346 C 388.232 558.674, 396.904 517.816, 392.865 516.622 C 392.114 516.400, 384.075 515.046, 375 513.613 C 360.299 511.293, 342.804 508.336, 306.120 501.974 C 299.862 500.888, 294.124 500, 293.370 500 C 292.259 500, 292 503.489, 292 518.433" stroke="none" fill="#343b65" fill-rule="evenodd"/></svg>