<?xml version="1.0" standalone="no"?>
<!DOCTYPE svg PUBLIC "-//W3C//DTD SVG 20010904//EN"
 "http://www.w3.org/TR/2001/REC-SVG-20010904/DTD/svg10.dtd">
<svg version="1.0" xmlns="http://www.w3.org/2000/svg"
 width="1280.000000pt" height="853.000000pt" viewBox="0 0 1280.000000 853.000000"
 preserveAspectRatio="xMidYMid meet">

<g transform="translate(0.000000,853.000000) scale(0.100000,-0.100000)"
fill="#000000" stroke="none">
<path d="M2770 6279 c-85 -65 -209 -160 -275 -211 l-120 -92 45 -13 c103 -31
427 -115 1004 -260 l268 -68 -6 -535 c-4 -294 -2 -674 2 -845 8 -270 12 -317
29 -365 60 -164 169 -312 281 -377 43 -25 162 -73 183 -73 6 0 8 372 7 1025
-2 564 -2 1025 -1 1025 1 0 37 -9 80 -19 75 -19 182 -46 708 -181 496 -128
495 -128 495 -115 0 13 -26 86 -118 330 -27 72 -67 177 -88 234 -26 70 -45
106 -59 112 -17 8 -314 81 -605 149 -41 10 -190 46 -330 80 -140 34 -478 115
-750 180 -272 66 -511 124 -530 130 -19 5 -42 10 -50 9 -8 0 -85 -54 -170
-120z"/>
<path d="M2295 5774 c-275 -77 -449 -137 -650 -221 -180 -76 -392 -176 -406
-191 -4 -4 -10 -405 -14 -892 l-7 -885 134 -96 c190 -137 299 -212 302 -207 2
1 8 111 15 243 7 132 17 314 22 405 6 91 16 388 23 660 l11 495 148 53 c178
63 244 82 449 128 l158 36 87 -54 88 -55 3 -184 2 -184 -147 -84 c-303 -173
-459 -269 -625 -383 -65 -45 -75 -55 -67 -71 32 -59 274 -316 547 -580 l111
-108 0 -387 1 -387 25 -20 c27 -20 400 -243 423 -252 9 -4 12 127 12 634 l0
638 -127 131 c-71 71 -165 171 -210 221 l-83 90 139 88 c159 101 284 189 383
270 l70 57 -4 388 c-2 330 -5 391 -18 403 -22 20 -645 337 -662 336 -7 0 -67
-16 -133 -35z"/>
<path d="M6060 4295 l0 -1355 32 0 31 0 -6 392 c-4 215 -7 825 -7 1355 l0 963
-25 0 -25 0 0 -1355z"/>
<path d="M10225 5600 c-357 -35 -648 -272 -766 -626 l-33 -99 0 -205 c0 -198
1 -208 28 -290 54 -161 123 -269 255 -392 88 -82 156 -126 261 -169 139 -56
181 -63 370 -63 163 0 182 2 275 28 183 53 353 147 463 259 l52 53 -2 329 -3
330 -400 0 -400 0 0 -147 0 -148 228 0 227 0 0 -110 0 -109 -53 -40 c-71 -54
-148 -87 -247 -105 -105 -20 -183 -20 -273 0 -198 44 -335 170 -403 369 -24
70 -28 96 -28 210 -1 118 2 138 28 216 54 162 159 281 303 344 65 28 75 29
213 30 l145 0 79 -38 c64 -30 94 -53 167 -128 l88 -91 24 18 c14 11 77 62 142
114 l116 95 -113 110 c-94 92 -129 119 -206 158 -156 81 -345 115 -537 97z"/>
<path d="M6530 5118 c0 -249 3 -652 7 -896 l6 -442 174 2 174 3 -1 333 -1 332
78 -1 c43 -1 101 -4 130 -7 l52 -7 132 -215 c72 -118 161 -263 196 -322 l65
-108 203 0 204 0 -99 153 c-55 83 -122 188 -150 232 -28 44 -84 132 -125 195
l-74 115 32 14 c18 7 41 17 52 21 41 16 144 102 185 154 23 31 56 90 73 133
29 72 31 86 31 198 -1 104 -4 130 -27 194 -52 143 -139 243 -267 304 -123 58
-136 59 -612 64 l-438 5 0 -454z m807 127 c75 -22 126 -65 159 -131 72 -147 2
-308 -156 -355 -19 -6 -128 -13 -242 -16 l-208 -6 0 262 0 261 198 0 c147 0
211 -4 249 -15z"/>
<path d="M8770 4933 c0 -392 -4 -645 -11 -673 -14 -64 -52 -116 -102 -141 -50
-26 -168 -37 -218 -20 -36 12 -98 65 -140 120 l-25 34 -125 -76 c-182 -111
-168 -96 -137 -148 111 -189 375 -301 636 -269 223 28 399 184 445 395 27 126
29 202 22 807 l-8 598 -168 0 -169 0 0 -627z"/>
<path d="M4310 5126 l0 -234 78 -18 c42 -9 127 -30 187 -45 110 -27 110 -27
166 -87 31 -33 85 -97 119 -143 35 -46 65 -86 66 -88 3 -3 123 46 412 170 l44
19 -38 52 c-97 135 -202 263 -284 345 -88 88 -91 91 -167 111 -323 83 -446
116 -502 133 -35 10 -67 19 -72 19 -5 0 -9 -103 -9 -234z"/>
<path d="M4373 4110 c3 -122 7 -223 9 -225 3 -3 201 -43 467 -95 58 -11 107
-22 110 -25 9 -10 -40 -98 -97 -173 -64 -85 -145 -150 -247 -197 -72 -33 -206
-65 -273 -65 -37 0 -39 -2 -57 -52 -28 -78 -90 -213 -137 -295 -31 -55 -47
-73 -63 -73 -54 0 -325 117 -442 190 l-64 41 -60 -36 c-119 -70 -272 -119
-405 -132 l-64 -6 0 -290 0 -290 233 6 c339 9 547 44 822 137 326 111 565 242
824 450 201 162 387 401 461 593 56 145 110 402 110 520 l0 33 -107 18 c-60 9
-164 28 -233 41 -69 13 -188 35 -265 49 -269 48 -480 88 -504 93 l-24 6 6
-223z"/>
</g>
</svg>
